<svg version="1" xmlns="http://www.w3.org/2000/svg" width="1068" height="1068" viewBox="0 0 801.000000 801.000000"><path d="M372.8 19.5c-.3.3-5 .8-17.3 2.1-2.7.2-6.1.6-7.5.9-1.4.2-4.5.7-7 1-2.5.4-6.4 1.1-8.8 1.6-2.3.5-5.9 1.2-8 1.5-5.4.8-26.4 6.1-36.2 9.1-4.7 1.5-8.8 2.7-9.2 2.7-.3.1-1 .4-1.4.8-.4.5-1.7.8-2.9.8-1.1 0-2.5.4-3 .8-.6.5-3.9 1.9-7.5 3.1-3.6 1.3-6.9 2.7-7.5 3.2-.5.5-1.5.9-2.2.9-1.2 0-8 3-22.9 10.1-13.6 6.5-42.5 23.3-43.2 25.1-.2.4-1 .8-1.8.8s-1.4.4-1.4.8c0 .5-1 1.4-2.2 1.9-1.3.6-3.2 1.8-4.3 2.7-1.1.9-4.7 3.6-8 6.1-8 6-11.6 8.8-12.9 10-.6.5-3.8 3.2-7.1 6-7.3 6-34.7 33.3-39.5 39.4-1.9 2.4-4.2 5.1-5.1 6-2.9 3-18.9 24.4-22.4 30-.6.9-2.9 4.4-5.3 7.9-2.3 3.5-4.2 6.5-4.2 6.7 0 .1-1.8 3.2-3.9 6.8C64.7 217 55 236 55 237.5c0 .8-.5 1.5-1.1 1.7-.5.2-1.1 1-1.3 1.8-.1.8-1.2 3.7-2.5 6.5-2.8 6.1-10.1 24.4-10.6 26.5-.2.8-1.5 4.9-2.8 9-7.1 20.7-14.1 53.4-16.2 74.3-.3 3.7-.9 7.8-1.2 9-.8 3.7-1.1 55.7-.3 63.7 1.9 17.8 2.2 20.2 2.6 22.3.2 1.2.7 4.7 1 7.7.3 3 .7 5.7.9 6.1.4.5.8 2.4 2 10.1.3 1.8.8 4.1 1.1 5 .3.9.7 2.6.9 3.8 1.9 9.9 11.3 41.4 14.4 48.5.5 1.1 1.7 4 2.6 6.5.9 2.5 2.2 5.6 2.8 7 .6 1.4 1.1 2.7 1.2 3 1.1 3.4 12.2 26.1 16.2 33.5 6.6 11.9 10.2 17.7 17.7 29 4.4 6.6 8.2 12.2 8.5 12.5.4.3 2.6 3.2 5 6.5 8.7 11.8 19.7 24.2 34.6 39 15.6 15.5 16.1 16 28.5 26.1 8.7 7 26.7 20.4 27.5 20.4.6 0 6.4 3.9 7.5 5 .5.5 4.1 2.6 7.9 4.6 1.3.7 2.7 1.6 3 2.1 1.4 1.9 35.7 18.9 49.7 24.7 8.9 3.6 32.3 12.1 34.4 12.4.3 0 1.2.3 2 .6.8.2 2.9.8 4.5 1.2 1.7.4 3.5.8 4 1 .6.2 1.9.5 3 .8 1.1.3 3.5.9 5.3 1.5 1.8.5 3.5 1 3.7 1 .3 0 1.5.3 2.8.6 1.2.3 3.3.7 4.7.9 6.6 1.3 8.7 1.7 11.5 2.3 1.7.4 3.2.7 3.5.8.3.1 3.1.5 6.4.9 3.2.4 7 1 8.5 1.3 21.2 3.8 77.6 3.8 101.6-.2 1.7-.2 5.5-.7 8.5-1.1 3-.3 5.8-.8 6.1-1 .4-.2 2.4-.6 4.5-1 2.1-.3 6.7-1.2 10.3-2 3.6-.8 7.7-1.7 9.1-2 1.4-.2 7-1.8 12.5-3.4 5.5-1.7 11.1-3.3 12.4-3.6 3.6-.8 25.7-8.9 34.7-12.7 8.9-3.9 33.6-15.8 34.4-16.6.6-.8 4.3-2.9 10.1-5.8 2.6-1.2 5.2-3 5.9-3.8.7-.8 1.7-1.5 2.2-1.5.5 0 3-1.5 5.6-3.3 2.6-1.7 5.4-3.7 6.3-4.2 7.7-4.8 32-23.3 35-26.7.9-1 2.2-1.8 2.8-1.8.7 0 .9-.4.6-1-.3-.5-.3-1 .2-1 .4 0 2.8-1.9 5.3-4.1 2.5-2.3 5.8-5.2 7.3-6.5 1.6-1.3 2.7-2.4 2.5-2.4-.3 0 3-3.5 7.1-7.8 9.6-9.8 14.4-15.2 20.4-22.7 2.6-3.3 5.6-6.9 6.6-8 1-1.1 2.6-3.4 3.7-5 1-1.7 2.1-3.2 2.5-3.5.3-.3 3.1-4.1 6.1-8.5 11.9-17.1 21.4-33.6 30.2-52 6.4-13.4 7.1-15.2 11.1-25.5 2-5.2 4-10.3 4.5-11.2.6-1 1-2.6 1-3.6s.3-2.2.8-2.6c.4-.4.7-1.1.8-1.4 0-.4 1.2-4.5 2.7-9.2 3-9.8 7-25 8.3-32 .2-1.4 1.1-5.9 1.9-10 1.9-9.8 2.4-13.2 4-26 1.4-10.8 2-23.8 2-43.5 0-26.5-1-40.7-4.1-59-.3-1.7-.7-4.4-1-6-.2-1.7-.6-3.9-.8-5-.3-1.1-1.4-6.3-2.5-11.5s-2.7-12.2-3.6-15.5c-.9-3.3-1.8-6.5-1.9-7-.2-.6-.9-3-1.6-5.5-.7-2.5-1.5-5-1.6-5.5-1.8-7-13.7-37.4-16-41-.7-1.1-1.3-2.3-1.4-2.7-.1-1.5-3.5-8.3-4.5-9-.5-.4-.7-.8-.2-.8.9 0-2.7-7.2-5.7-11.5-1.1-1.7-2-3.1-1.8-3.3.5-.4-10.8-19.2-17.4-29.1-3.5-5.1-6.4-9.7-6.4-10.1 0-.4-.7-1-1.5-1.4-.8-.3-1.5-1.2-1.5-2s-.4-1.6-.8-1.8c-.4-.2-3.7-4-7.2-8.6-3.5-4.5-6.7-8.2-7.2-8.2-.4 0-.8-.4-.8-1 0-.5-1.2-2.4-2.7-4.1-5.3-6-34.9-35.4-40.2-39.9-3-2.5-5.9-5-6.5-5.5-.6-.6-4-3.2-7.6-6-3.6-2.7-6.6-5.3-6.8-5.7-.2-.5-1-.8-1.8-.8s-1.7-.7-2-1.5c-.4-.8-1-1.5-1.4-1.5-.7 0-13.8-8.6-16.5-10.8-.5-.4-1.7-1.1-2.5-1.5-.8-.4-2.8-1.6-4.5-2.6-15-9.3-35.2-19.6-52-26.6-7.7-3.2-28.8-11.1-32-11.9-.5-.1-2.8-.8-5-1.4-2.2-.6-4.4-1.2-5-1.3-.5-.1-3.4-1-6.2-2-2.9-1-5.3-1.6-5.3-1.4 0 .2-1.5-.1-3.2-.6-1.8-.5-4.6-1.2-6.3-1.5-1.6-.3-4.8-1-7-1.6-2.2-.6-5.3-1.2-7-1.4-1.6-.1-4.6-.6-6.5-.9-1.9-.4-4.4-.9-5.5-1-7.2-1.1-18.8-2.6-23-3.1-5.3-.6-61.1-1.4-61.7-.9z"/></svg>